<svg width="201" height="52" viewBox="0 0 201 52" fill="none" xmlns="http://www.w3.org/2000/svg">
<path d="M27.7916 34.8789C27.7916 34.8789 23.4935 30.8976 19.0357 35.4841C19.0357 35.4841 15.7254 39.4344 20.1815 44.0226C20.1815 44.0226 23.4935 41.1518 23.8113 44.626C23.8113 44.626 26.0394 44.5968 25.7851 46.8264C25.7851 46.8264 28.2039 46.0304 27.503 49.056C27.503 49.056 29.2226 49.3757 28.7776 51.6689C28.7776 51.6689 30.8459 52.2741 30.5281 50.5223L28.587 48.4835C28.587 48.4835 28.2984 47.5896 29.1916 48.0366L31.643 50.4914C31.643 50.4914 33.3952 50.904 32.9486 49.0577L30.5299 46.572C30.5299 46.572 30.2739 45.776 30.9765 46.1903L33.6168 48.5798C33.6168 48.5798 35.3055 49.0268 34.7644 47.2097L32.1206 44.6277C32.1206 44.6277 32.0244 43.8008 32.8215 44.2151L35.3364 46.6682C35.3364 46.6682 37.0234 47.2733 36.7691 45.2672L30.5281 39.3072C30.5281 39.3072 30.2739 38.8947 29.573 39.7215L27.1543 42.0801C27.1543 42.0801 22.602 43.3522 23.5244 39.0201L27.7916 34.8789Z" fill="#303BCA"/>
<path fill-rule="evenodd" clip-rule="evenodd" d="M21.4544 44.0226L19.9599 45.3618C19.3861 47.5278 21.3273 46.8264 21.3273 46.8264L23.1104 44.9475C23.3011 42.9396 21.4544 44.0226 21.4544 44.0226ZM23.5571 45.6162L21.9028 47.337C21.877 49.0027 23.3011 48.5162 23.3011 48.5162L24.9262 46.7628C25.244 44.8203 23.5571 45.6162 23.5571 45.6162ZM23.7168 49.2485L25.5944 47.4315C27.5356 47.1135 26.8055 48.8342 26.8055 48.8342L25.2457 50.555C23.6206 50.9504 23.7168 49.2485 23.7168 49.2485ZM26.9584 51.7704C27.4102 51.7704 27.7778 51.4025 27.7778 50.9487C27.7778 50.4966 27.4102 50.1287 26.9584 50.1287C26.5049 50.1287 26.139 50.4966 26.139 50.9487C26.139 51.4025 26.5049 51.7704 26.9584 51.7704Z" fill="#00A2FF"/>
<path fill-rule="evenodd" clip-rule="evenodd" d="M24.3524 39.18L29.4785 34.1776C29.4785 34.1776 33.0997 30.9664 36.7966 34.3701C36.7966 34.3701 40.2374 37.5762 38.6793 41.3478C38.6793 41.3478 37.0766 43.6822 36.4513 44.0226L31.071 38.7984C31.071 38.7984 29.7654 37.9389 29.0645 39.0855L26.5496 41.444C26.5496 41.444 23.6206 42.3036 24.3524 39.18Z" fill="#00A2FF"/>
<path fill-rule="evenodd" clip-rule="evenodd" d="M27.1902 4.90552C27.1902 4.90552 0.572034 7.01996 0.206131 32.8711C0.206131 32.8711 3.87891 25.878 14.7358 30.4249C14.7358 30.4249 16.1702 20.9959 19.9958 18.89C19.9958 18.89 17.036 29.2525 17.7798 32.8711C17.7798 32.8711 27.216 23.2152 38.7737 32.6424C38.7737 32.6424 37.4561 22.0067 35.6902 18.89C35.6902 18.89 39.3595 20.824 41.3127 30.6776C41.3127 30.6776 48.7923 24.7056 55.4953 32.8711C55.4953 32.8711 55.6757 8.19235 29.0094 4.90896H27.1885L27.1902 4.90552Z" fill="url(#paint0_linear_2128_73)"/>
<path d="M27.2062 0.229492H29.2062V5.22949H27.2062V0.229492Z" fill="#3039C9"/>
<path d="M27.2062 0.229492H29.2062V5.22949H27.2062V0.229492Z" fill="#2E4CCE"/>
<path d="M67.4761 44V7.00658H73.102L91.5191 36.9941H90.2453V7.00658H95.6059V44H89.8738L71.6159 13.9594H72.8897V44H67.4761ZM111.353 44L100.631 17.8339H106.364L113.476 37.2594L120.694 17.8339H126.32L115.705 44H111.353ZM141.591 44.4777C139.468 44.4777 137.628 44.1238 136.071 43.4162C134.514 42.7085 133.222 41.7355 132.196 40.497C131.17 39.2232 130.392 37.7902 129.861 36.1979C129.366 34.5703 129.118 32.8719 129.118 31.1027C129.118 29.3336 129.366 27.6351 129.861 26.0075C130.356 24.3445 131.099 22.8761 132.09 21.6023C133.081 20.2931 134.319 19.267 135.805 18.5239C137.327 17.7455 139.114 17.3562 141.166 17.3562C143.218 17.3562 144.987 17.7101 146.474 18.4177C147.96 19.09 149.18 20.0454 150.136 21.2838C151.091 22.4868 151.799 23.8491 152.259 25.3706C152.754 26.8921 153.002 28.502 153.002 30.2004C153.002 30.3774 152.984 30.7135 152.949 31.2089C152.949 31.6689 152.913 32.1112 152.843 32.5358H134.319C134.425 34.8711 135.133 36.6756 136.442 37.9494C137.787 39.1878 139.556 39.8071 141.75 39.8071C143.236 39.8071 144.563 39.5771 145.73 39.1171C146.898 38.6217 147.977 37.861 148.968 36.8348L152.153 40.1255C151.126 41.1516 150.065 41.9831 148.968 42.62C147.907 43.2569 146.774 43.7169 145.571 44C144.404 44.3185 143.077 44.4777 141.591 44.4777ZM147.853 29.9351C147.924 29.652 147.96 29.3689 147.96 29.0859C147.995 28.8028 148.013 28.5197 148.013 28.2367C148.013 27.4228 147.871 26.6267 147.588 25.8483C147.305 25.0698 146.88 24.3799 146.314 23.7783C145.748 23.1414 145.041 22.6461 144.191 22.2922C143.377 21.903 142.422 21.7084 141.325 21.7084C139.875 21.7084 138.636 22.0446 137.61 22.7168C136.584 23.3537 135.788 24.2029 135.222 25.2645C134.691 26.326 134.372 27.4759 134.266 28.7143H149.552L147.853 29.9351ZM167.812 44.4777C165.972 44.4777 164.344 44.2123 162.929 43.6815C161.514 43.1154 160.293 42.4077 159.267 41.5585C158.276 40.674 157.48 39.7717 156.878 38.8517L160.434 35.7733C161.107 36.9764 162.062 38.0202 163.3 38.9048C164.574 39.754 166.096 40.1786 167.865 40.1786C169.422 40.1786 170.643 39.8601 171.527 39.2232C172.447 38.5509 172.907 37.684 172.907 36.6225C172.907 35.7733 172.624 35.1011 172.058 34.6057C171.492 34.0749 170.749 33.6503 169.829 33.3319C168.909 32.978 167.9 32.6773 166.803 32.4296C165.813 32.1465 164.804 31.8281 163.778 31.4743C162.752 31.1204 161.814 30.6781 160.965 30.1474C160.151 29.5812 159.479 28.8736 158.948 28.0244C158.453 27.1398 158.205 26.0606 158.205 24.7868C158.205 22.5576 159.054 20.7708 160.753 19.4262C162.487 18.0462 164.769 17.3562 167.6 17.3562C169.616 17.3562 171.456 17.7808 173.119 18.6301C174.782 19.4439 176.074 20.6646 176.994 22.2922L173.756 24.7868C173.049 23.6191 172.129 22.7699 170.996 22.2392C169.899 21.7084 168.696 21.443 167.387 21.443C166.149 21.443 165.105 21.7084 164.256 22.2392C163.442 22.7345 163.035 23.4245 163.035 24.3091C163.035 24.946 163.212 25.4768 163.566 25.9014C163.955 26.2906 164.539 26.6444 165.317 26.9629C166.131 27.2459 167.122 27.529 168.29 27.8121C169.386 28.0597 170.501 28.3605 171.633 28.7143C172.766 29.0682 173.809 29.5282 174.765 30.0943C175.72 30.6604 176.498 31.4212 177.1 32.3765C177.702 33.3319 178.002 34.5703 178.002 36.0918C178.002 37.7548 177.578 39.2232 176.728 40.497C175.879 41.7355 174.694 42.7085 173.172 43.4162C171.651 44.1238 169.864 44.4777 167.812 44.4777ZM193.113 44.4777C191.839 44.4777 190.654 44.23 189.557 43.7346C188.495 43.2393 187.646 42.4431 187.009 41.3462C186.408 40.214 186.107 38.7632 186.107 36.9941V11.1464L191.361 8.22731V35.6141C191.361 37.0648 191.574 38.1971 191.998 39.0109C192.458 39.7894 193.29 40.1786 194.493 40.1786C194.847 40.1786 195.254 40.1432 195.714 40.0724C196.209 39.9663 196.74 39.8424 197.306 39.7009V43.7346C196.598 43.9823 195.891 44.1592 195.183 44.2654C194.475 44.4069 193.785 44.4777 193.113 44.4777ZM180.906 21.8676V17.8339H197.306V21.8676H180.906Z" fill="#0035BC"/>
<defs>
<linearGradient id="paint0_linear_2128_73" x1="13.7062" y1="8.72949" x2="47.7062" y2="25.7295" gradientUnits="userSpaceOnUse">
<stop stop-color="#3039C9"/>
<stop offset="1" stop-color="#00A2FF"/>
</linearGradient>
</defs>
</svg>
