<svg width="56" height="52" viewBox="0 0 56 52" fill="none" xmlns="http://www.w3.org/2000/svg">
<path d="M27.7916 34.8789C27.7916 34.8789 23.4935 30.8976 19.0357 35.4841C19.0357 35.4841 15.7254 39.4344 20.1815 44.0226C20.1815 44.0226 23.4935 41.1518 23.8113 44.626C23.8113 44.626 26.0394 44.5968 25.7851 46.8264C25.7851 46.8264 28.2039 46.0304 27.503 49.056C27.503 49.056 29.2226 49.3757 28.7776 51.6689C28.7776 51.6689 30.8459 52.2741 30.5281 50.5223L28.587 48.4835C28.587 48.4835 28.2984 47.5896 29.1916 48.0366L31.643 50.4914C31.643 50.4914 33.3952 50.904 32.9486 49.0577L30.5299 46.572C30.5299 46.572 30.2739 45.776 30.9765 46.1903L33.6168 48.5798C33.6168 48.5798 35.3055 49.0268 34.7644 47.2097L32.1206 44.6277C32.1206 44.6277 32.0244 43.8008 32.8215 44.2151L35.3364 46.6682C35.3364 46.6682 37.0234 47.2733 36.7691 45.2672L30.5281 39.3072C30.5281 39.3072 30.2739 38.8947 29.573 39.7215L27.1543 42.0801C27.1543 42.0801 22.602 43.3522 23.5244 39.0201L27.7916 34.8789Z" fill="#303BCA"/>
<path fill-rule="evenodd" clip-rule="evenodd" d="M21.4544 44.0226L19.9599 45.3618C19.3861 47.5278 21.3273 46.8264 21.3273 46.8264L23.1104 44.9475C23.3011 42.9396 21.4544 44.0226 21.4544 44.0226ZM23.5571 45.6162L21.9028 47.337C21.877 49.0027 23.3011 48.5162 23.3011 48.5162L24.9262 46.7628C25.244 44.8203 23.5571 45.6162 23.5571 45.6162ZM23.7168 49.2485L25.5944 47.4315C27.5356 47.1135 26.8055 48.8342 26.8055 48.8342L25.2457 50.555C23.6206 50.9504 23.7168 49.2485 23.7168 49.2485ZM26.9584 51.7704C27.4102 51.7704 27.7778 51.4025 27.7778 50.9487C27.7778 50.4966 27.4102 50.1287 26.9584 50.1287C26.5049 50.1287 26.139 50.4966 26.139 50.9487C26.139 51.4025 26.5049 51.7704 26.9584 51.7704Z" fill="#00A2FF"/>
<path fill-rule="evenodd" clip-rule="evenodd" d="M24.3524 39.18L29.4785 34.1776C29.4785 34.1776 33.0997 30.9664 36.7966 34.3701C36.7966 34.3701 40.2374 37.5762 38.6793 41.3478C38.6793 41.3478 37.0766 43.6822 36.4513 44.0226L31.071 38.7984C31.071 38.7984 29.7654 37.9389 29.0645 39.0855L26.5496 41.444C26.5496 41.444 23.6206 42.3036 24.3524 39.18Z" fill="#00A2FF"/>
<path fill-rule="evenodd" clip-rule="evenodd" d="M27.1902 4.90552C27.1902 4.90552 0.572034 7.01996 0.206131 32.8711C0.206131 32.8711 3.87891 25.878 14.7358 30.4249C14.7358 30.4249 16.1702 20.9959 19.9958 18.89C19.9958 18.89 17.036 29.2525 17.7798 32.8711C17.7798 32.8711 27.216 23.2152 38.7737 32.6424C38.7737 32.6424 37.4561 22.0067 35.6902 18.89C35.6902 18.89 39.3595 20.824 41.3127 30.6776C41.3127 30.6776 48.7923 24.7056 55.4953 32.8711C55.4953 32.8711 55.6757 8.19235 29.0094 4.90896H27.1885L27.1902 4.90552Z" fill="url(#paint0_linear_2128_74)"/>
<path d="M27.2062 0.229492H29.2062V5.22949H27.2062V0.229492Z" fill="#3039C9"/>
<path d="M27.2062 0.229492H29.2062V5.22949H27.2062V0.229492Z" fill="#2E4CCE"/>
<defs>
<linearGradient id="paint0_linear_2128_74" x1="13.7062" y1="8.72949" x2="47.7062" y2="25.7295" gradientUnits="userSpaceOnUse">
<stop stop-color="#3039C9"/>
<stop offset="1" stop-color="#00A2FF"/>
</linearGradient>
</defs>
</svg>
